<!DOCTYPE svg PUBLIC "-//W3C//Dth SVG 1.1//EN" "http://www.w3.org/Graphics/SVG/1.1/Dth/svg11.dth">

<!-- Uploaded to: SVG Repo, www.svgrepo.com, Transformed by: SVG Repo Mixer Tools -->
<svg fill="#ffffff" width="202px" height="202px" viewBox="-9.28 -9.28 50.56 50.56" xmlns="http://www.w3.org/2000/svg" stroke="#ffffff" stroke-width="0.608">

<g id="SVGRepo_bgCarrier" stroke-width="0" transform="translate(1.5999999999999996,1.5999999999999996), scale(0.9)">

<rect x="-9.28" y="-9.28" width="50.56" height="50.56" rx="25.28" fill="#385c46" strokewidth="0"/>

</g>

<g id="SVGRepo_tracerCarrier" stroke-linecap="round" stroke-linejoin="round" stroke="#CCCCCC" stroke-width="0.064"/>

<g id="SVGRepo_iconCarrier"> <g data-name="11. Phone" id="_11._Phone"> <path d="M14,6a1,1,0,0,0,0-2H8A1,1,0,0,0,8,6Z"/> <path d="M21,8.84v-4A4.8,4.8,0,0,0,16.21,0H5.79A4.8,4.8,0,0,0,1,4.79V27.21A4.8,4.8,0,0,0,5.79,32H16.21A4.8,4.8,0,0,0,21,27.21v-.05A10,10,0,0,0,21,8.84ZM16.21,30H5.79A2.79,2.79,0,0,1,3,27.21V4.79A2.79,2.79,0,0,1,5.79,2H16.21A2.79,2.79,0,0,1,19,4.79V8.2A10.2,10.2,0,0,0,17,8a9.92,9.92,0,0,0-7,2.89V10a1,1,0,0,0-2,0V26a1,1,0,0,0,2,0v-.89A9.92,9.92,0,0,0,17,28a10.19,10.19,0,0,0,1.93-.19A2.79,2.79,0,0,1,16.21,30ZM17,26a8,8,0,0,1-7-4.14V14.14A8,8,0,1,1,17,26Z"/> <path d="M17,15h2a1,1,0,0,0,0-2H18a1,1,0,0,0-2,0v.18A3,3,0,0,0,17,19a1,1,0,0,1,0,2H15a1,1,0,0,0,0,2h1a1,1,0,0,0,2,0v-.18A3,3,0,0,0,17,17a1,1,0,0,1,0-2Z"/> <path d="M30,5H27.41l.3-.29a1,1,0,1,0-1.42-1.42l-2,2a1,1,0,0,0,0,1.42l2,2a1,1,0,0,0,1.42,0,1,1,0,0,0,0-1.42L27.41,7H30a1,1,0,0,0,0-2Z"/> </g> </g>

</svg>